<svg xmlns="http://www.w3.org/2000/svg" viewBox="0 0 143 95" fill="none">
  <!-- Define the swallowtail clip path -->
  <defs>
    <clipPath id="swallowtail">
      <polygon points="0,0 105,0 143,47.5 105,95 0,95"/>
    </clipPath>
  </defs>
  <g clip-path="url(#swallowtail)">
    <!-- 5 horizontal stripes: red, white, red, white, red -->
    <rect x="0" y="0" width="143" height="19" fill="#CE1126"/>
    <rect x="0" y="19" width="143" height="19" fill="white"/>
    <rect x="0" y="38" width="143" height="19" fill="#CE1126"/>
    <rect x="0" y="57" width="143" height="19" fill="white"/>
    <rect x="0" y="76" width="143" height="19" fill="#CE1126"/>
    <!-- Blue triangle -->
    <polygon points="0,0 0,95 57,47.5" fill="#002868"/>
    <!-- White O circle -->
    <circle cx="23" cy="47.5" r="12" fill="white"/>
    <!-- Red center of O -->
    <circle cx="23" cy="47.5" r="5" fill="#CE1126"/>
    <!-- Stars around the O (13 stars) -->
    <g fill="white">
      <circle cx="23" cy="28" r="2"/>
      <circle cx="31" cy="31" r="2"/>
      <circle cx="36" cy="38" r="2"/>
      <circle cx="38" cy="47.5" r="2"/>
      <circle cx="36" cy="57" r="2"/>
      <circle cx="31" cy="64" r="2"/>
      <circle cx="23" cy="67" r="2"/>
      <circle cx="15" cy="64" r="2"/>
      <circle cx="10" cy="57" r="2"/>
      <circle cx="8" cy="47.5" r="2"/>
      <circle cx="10" cy="38" r="2"/>
      <circle cx="15" cy="31" r="2"/>
    </g>
    <!-- 4 stars at apex of triangle -->
    <g fill="white">
      <circle cx="45" cy="38" r="2"/>
      <circle cx="50" cy="43" r="2"/>
      <circle cx="50" cy="52" r="2"/>
      <circle cx="45" cy="57" r="2"/>
    </g>
    <!-- Magnifying glass overlay for fraud tracker theme -->
    <g opacity="0.9">
      <circle cx="95" cy="50" r="20" fill="none" stroke="white" stroke-width="5"/>
      <line x1="110" y1="65" x2="125" y2="80" stroke="white" stroke-width="5" stroke-linecap="round"/>
    </g>
  </g>
</svg>
