<svg xmlns="http://www.w3.org/2000/svg" viewBox="0 0 32 32">
  <!-- Ohio State Flag - Burgee/Swallowtail shape -->
  <defs>
    <clipPath id="flagShape">
      <!-- Swallowtail burgee pennant shape -->
      <polygon points="0,0 32,0 32,6.4 24,16 32,25.6 32,32 0,32"/>
    </clipPath>
  </defs>

  <g clip-path="url(#flagShape)">
    <!-- Red and white stripes (5 stripes) -->
    <rect x="0" y="0" width="32" height="6.4" fill="#BF0A30"/>
    <rect x="0" y="6.4" width="32" height="6.4" fill="white"/>
    <rect x="0" y="12.8" width="32" height="6.4" fill="#BF0A30"/>
    <rect x="0" y="19.2" width="32" height="6.4" fill="white"/>
    <rect x="0" y="25.6" width="32" height="6.4" fill="#BF0A30"/>

    <!-- Blue triangle -->
    <polygon points="0,0 17,16 0,32" fill="#002868"/>

    <!-- White O circle -->
    <circle cx="7" cy="16" r="5" fill="white"/>

    <!-- Red center of O (buckeye) -->
    <circle cx="7" cy="16" r="2.5" fill="#BF0A30"/>

    <!-- Stars around the O (simplified for favicon - showing 4 prominent stars) -->
    <g fill="white">
      <!-- Top star -->
      <polygon points="7,8.5 7.5,10 9,10 7.8,11 8.3,12.5 7,11.5 5.7,12.5 6.2,11 5,10 6.5,10" transform="scale(0.6) translate(5,-2)"/>
      <!-- Left star -->
      <polygon points="7,8.5 7.5,10 9,10 7.8,11 8.3,12.5 7,11.5 5.7,12.5 6.2,11 5,10 6.5,10" transform="scale(0.6) translate(-2,8)"/>
      <!-- Right star -->
      <polygon points="7,8.5 7.5,10 9,10 7.8,11 8.3,12.5 7,11.5 5.7,12.5 6.2,11 5,10 6.5,10" transform="scale(0.6) translate(12,8)"/>
      <!-- Bottom star -->
      <polygon points="7,8.5 7.5,10 9,10 7.8,11 8.3,12.5 7,11.5 5.7,12.5 6.2,11 5,10 6.5,10" transform="scale(0.6) translate(5,18)"/>
    </g>
  </g>
</svg>
